<svg width="210" height="210" viewBox="0 0 210 210" fill="none" xmlns="http://www.w3.org/2000/svg">
<g clip-path="url(#clip0_129_8084)">
<path d="M198 0H12C5.37258 0 0 5.37258 0 12V198C0 204.627 5.37258 210 12 210H198C204.627 210 210 204.627 210 198V12C210 5.37258 204.627 0 198 0Z" fill="#EFF6FF"/>
<path d="M139 62H77C74.7909 62 73 63.7909 73 66V148C73 150.209 74.7909 152 77 152H139C141.209 152 143 150.209 143 148V66C143 63.7909 141.209 62 139 62Z" fill="#E5E7EB"/>
<path d="M134 57H72C69.7909 57 68 58.7909 68 61V143C68 145.209 69.7909 147 72 147H134C136.209 147 138 145.209 138 143V61C138 58.7909 136.209 57 134 57Z" fill="white" stroke="#6366F1" stroke-width="2"/>
<path d="M103 127C116.807 127 128 115.807 128 102C128 88.1929 116.807 77 103 77C89.1929 77 78 88.1929 78 102C78 115.807 89.1929 127 103 127Z" fill="#EEF2FF"/>
<path d="M103 87V117ZM88 102H118Z" fill="black"/>
<path d="M103 87V117M88 102H118" stroke="#6366F1" stroke-width="3" stroke-linecap="round"/>
<path d="M126 67H80C78.8954 67 78 67.8954 78 69V73C78 74.1046 78.8954 75 80 75H126C127.105 75 128 74.1046 128 73V69C128 67.8954 127.105 67 126 67Z" fill="#D1D5DB"/>
<path d="M127 127H79C78.4477 127 78 127.448 78 128V130C78 130.552 78.4477 131 79 131H127C127.552 131 128 130.552 128 130V128C128 127.448 127.552 127 127 127Z" fill="#E5E7EB"/>
<path d="M107 135H79C78.4477 135 78 135.448 78 136V138C78 138.552 78.4477 139 79 139H107C107.552 139 108 138.552 108 138V136C108 135.448 107.552 135 107 135Z" fill="#E5E7EB"/>
</g>
<defs>
<clipPath id="clip0_129_8084">
<rect width="210" height="210" fill="white"/>
</clipPath>
</defs>
</svg>
