<svg width="24" height="25" viewBox="0 0 24 25" fill="none" xmlns="http://www.w3.org/2000/svg">
<g clip-path="url(#clip0_129_8146)">
<path fill-rule="evenodd" clip-rule="evenodd" d="M21 11.0828V19.75C21 20.5784 20.3284 21.25 19.5 21.25H15.75C14.9216 21.25 14.25 20.5784 14.25 19.75V16C14.25 15.5858 13.9142 15.25 13.5 15.25H10.5C10.0858 15.25 9.75 15.5858 9.75 16V19.75C9.75 20.5784 9.07843 21.25 8.25 21.25H4.5C3.67157 21.25 3 20.5784 3 19.75V11.0828C2.99994 10.6631 3.17573 10.2625 3.48469 9.97844L10.9847 2.90219L10.995 2.89188C11.5672 2.3715 12.4412 2.3715 13.0134 2.89188C13.0166 2.89554 13.0201 2.89899 13.0238 2.90219L20.5238 9.97844C20.8296 10.264 21.0022 10.6644 21 11.0828V11.0828Z" fill="#121417"/>
</g>
<defs>
<clipPath id="clip0_129_8146">
<rect width="24" height="24" fill="white" transform="translate(0 0.25)"/>
</clipPath>
</defs>
</svg>
