<svg width="24" height="24" viewBox="0 0 24 24" fill="none" xmlns="http://www.w3.org/2000/svg">
<g clip-path="url(#clip0_129_8158)">
<path fill-rule="evenodd" clip-rule="evenodd" d="M17.25 6H3.75C3.33579 6 3 6.33579 3 6.75V20.25C3 20.6642 3.33579 21 3.75 21H17.25C17.6642 21 18 20.6642 18 20.25V6.75C18 6.33579 17.6642 6 17.25 6V6ZM16.5 19.5H4.5V7.5H16.5V19.5ZM21 3.75V17.25C21 17.6642 20.6642 18 20.25 18C19.8358 18 19.5 17.6642 19.5 17.25V4.5H6.75C6.33579 4.5 6 4.16421 6 3.75C6 3.33579 6.33579 3 6.75 3H20.25C20.6642 3 21 3.33579 21 3.75V3.75Z" fill="#121417"/>
</g>
<defs>
<clipPath id="clip0_129_8158">
<rect width="24" height="24" fill="white"/>
</clipPath>
</defs>
</svg>
