<svg width="24" height="24" viewBox="0 0 24 24" fill="none" xmlns="http://www.w3.org/2000/svg">
<g clip-path="url(#clip0_129_8154)">
<path fill-rule="evenodd" clip-rule="evenodd" d="M21 18.75H20.25V3.75C20.25 3.33579 19.9142 3 19.5 3H14.25C13.8358 3 13.5 3.33579 13.5 3.75V7.5H9C8.58579 7.5 8.25 7.83579 8.25 8.25V12H4.5C4.08579 12 3.75 12.3358 3.75 12.75V18.75H3C2.58579 18.75 2.25 19.0858 2.25 19.5C2.25 19.9142 2.58579 20.25 3 20.25H21C21.4142 20.25 21.75 19.9142 21.75 19.5C21.75 19.0858 21.4142 18.75 21 18.75V18.75ZM15 4.5H18.75V18.75H15V4.5ZM9.75 9H13.5V18.75H9.75V9ZM5.25 13.5H8.25V18.75H5.25V13.5Z" fill="#121417"/>
</g>
<defs>
<clipPath id="clip0_129_8154">
<rect width="24" height="24" fill="white"/>
</clipPath>
</defs>
</svg>
