<svg width="210" height="210" viewBox="0 0 210 210" fill="none" xmlns="http://www.w3.org/2000/svg">
<g clip-path="url(#clip0_129_8094)">
<path d="M198 0H12C5.37258 0 0 5.37258 0 12V198C0 204.627 5.37258 210 12 210H198C204.627 210 210 204.627 210 198V12C210 5.37258 204.627 0 198 0Z" fill="#EFF6FF"/>
<path d="M138.25 59H70.75C68.6789 59 67 60.6203 67 62.619V150.381C67 152.38 68.6789 154 70.75 154H138.25C140.321 154 142 152.38 142 150.381V62.619C142 60.6203 140.321 59 138.25 59Z" fill="white" stroke="#6366F1" stroke-width="2"/>
<path d="M108.25 72.5713H77.3125C76.7947 72.5713 76.375 72.9764 76.375 73.4761V77.0951C76.375 77.5948 76.7947 77.9999 77.3125 77.9999H108.25C108.768 77.9999 109.188 77.5948 109.188 77.0951V73.4761C109.188 72.9764 108.768 72.5713 108.25 72.5713Z" fill="#4F46E5"/>
<path d="M122.312 86.1431H77.3125C76.7947 86.1431 76.375 86.5481 76.375 87.0478V87.9526C76.375 88.4523 76.7947 88.8574 77.3125 88.8574H122.312C122.83 88.8574 123.25 88.4523 123.25 87.9526V87.0478C123.25 86.5481 122.83 86.1431 122.312 86.1431Z" fill="#D1D5DB"/>
<path d="M122.312 92.4761H77.3125C76.7947 92.4761 76.375 92.8811 76.375 93.3808V94.2856C76.375 94.7853 76.7947 95.1904 77.3125 95.1904H122.312C122.83 95.1904 123.25 94.7853 123.25 94.2856V93.3808C123.25 92.8811 122.83 92.4761 122.312 92.4761Z" fill="#D1D5DB"/>
<path d="M94.1875 104.238H77.3125C76.7947 104.238 76.375 104.643 76.375 105.143V107.857C76.375 108.357 76.7947 108.762 77.3125 108.762H94.1875C94.7053 108.762 95.125 108.357 95.125 107.857V105.143C95.125 104.643 94.7053 104.238 94.1875 104.238Z" fill="#4F46E5"/>
<path d="M131.688 113.286H77.3125C76.7947 113.286 76.375 113.691 76.375 114.19V116C76.375 116.5 76.7947 116.905 77.3125 116.905H131.688C132.205 116.905 132.625 116.5 132.625 116V114.19C132.625 113.691 132.205 113.286 131.688 113.286Z" fill="#D1D5DB"/>
<path d="M109.188 113.286H95.125V116.905H109.188V113.286Z" fill="#BFDBFE" stroke="#6366F1" stroke-width="0.5"/>
<path d="M131.688 120.524H77.3125C76.7947 120.524 76.375 120.929 76.375 121.429V123.238C76.375 123.738 76.7947 124.143 77.3125 124.143H131.688C132.205 124.143 132.625 123.738 132.625 123.238V121.429C132.625 120.929 132.205 120.524 131.688 120.524Z" fill="#D1D5DB"/>
<path d="M115.75 120.524H104.5V124.143H115.75V120.524Z" fill="#BFDBFE" stroke="#6366F1" stroke-width="0.5"/>
<path d="M129.812 131.381H79.1875C77.6342 131.381 76.375 132.596 76.375 134.095C76.375 135.594 77.6342 136.809 79.1875 136.809H129.812C131.366 136.809 132.625 135.594 132.625 134.095C132.625 132.596 131.366 131.381 129.812 131.381Z" fill="#E5E7EB"/>
<path d="M115.75 131.381H79.1875C77.6342 131.381 76.375 132.596 76.375 134.095C76.375 135.594 77.6342 136.809 79.1875 136.809H115.75C117.303 136.809 118.562 135.594 118.562 134.095C118.562 132.596 117.303 131.381 115.75 131.381Z" fill="#4F46E5"/>
<path d="M137 83C146.941 83 155 74.9411 155 65C155 55.0589 146.941 47 137 47C127.059 47 119 55.0589 119 65C119 74.9411 127.059 83 137 83Z" fill="#EEF2FF" stroke="#6366F1" stroke-width="2"/>
<path d="M129.07 61.5322C130.535 61.542 131.922 62.4111 131.922 64.9795C131.932 67.3818 130.789 68.7979 129.012 68.7979C127.586 68.7979 126.619 67.9092 126.473 66.708H127.918C128.035 67.2256 128.445 67.5381 129.012 67.5381C129.979 67.5381 130.486 66.6787 130.486 65.2627H130.428C130.096 65.8877 129.402 66.2588 128.611 66.2588C127.342 66.2588 126.404 65.3018 126.395 63.9834C126.395 62.5576 127.469 61.5225 129.07 61.5322ZM129.08 62.6846C128.357 62.6846 127.82 63.2412 127.83 63.9443C127.83 64.6377 128.348 65.1846 129.07 65.1846C129.783 65.1846 130.34 64.6182 130.34 63.9346C130.33 63.2607 129.803 62.6846 129.08 62.6846ZM132.918 68.7002L132.908 67.6357L135.447 65.3018C136.111 64.667 136.463 64.2764 136.463 63.7197C136.463 63.0947 135.984 62.7041 135.34 62.7041C134.676 62.7041 134.246 63.124 134.246 63.7979H132.85C132.84 62.4111 133.865 61.5322 135.359 61.5322C136.873 61.5322 137.879 62.3916 137.879 63.6221C137.879 64.4229 137.488 65.0869 136.033 66.4053L134.959 67.4502V67.4893H137.977V68.7002H132.918ZM140.877 65.165C139.822 65.165 139.246 64.3936 139.246 63.2803C139.246 62.1572 139.842 61.3857 140.877 61.3857C141.941 61.3857 142.498 62.1572 142.508 63.2803C142.498 64.4033 141.922 65.165 140.877 65.165ZM140.877 64.2959C141.297 64.2959 141.502 63.8857 141.512 63.2803C141.502 62.6748 141.316 62.2549 140.877 62.2549C140.457 62.2549 140.242 62.6846 140.242 63.2803C140.242 63.8857 140.467 64.2959 140.877 64.2959ZM145.643 68.9346C144.598 68.9346 144.021 68.1631 144.021 67.0498C144.021 65.9268 144.617 65.1553 145.643 65.1553C146.707 65.1553 147.273 65.9268 147.283 67.0498C147.273 68.1729 146.697 68.9346 145.643 68.9346ZM145.643 68.0654C146.072 68.0654 146.277 67.665 146.287 67.0498C146.277 66.4443 146.092 66.0244 145.643 66.0342C145.232 66.0342 145.018 66.4541 145.018 67.0498C145.018 67.665 145.242 68.0654 145.643 68.0654ZM140.262 68.7002L145.125 61.6299H146.219L141.355 68.7002H140.262Z" fill="#6366F1"/>
</g>
<defs>
<clipPath id="clip0_129_8094">
<rect width="210" height="210" fill="white"/>
</clipPath>
</defs>
</svg>
